<?xml version="1.0" encoding="UTF-8" standalone="no"?>
<!DOCTYPE svg PUBLIC "-//W3C//DTD SVG 1.1//EN" "http://www.w3.org/Graphics/SVG/1.1/DTD/svg11.dtd">
<svg xmlns="http://www.w3.org/2000/svg" version="1.1" viewBox="0.00 0.00 231.00 219.00">
<path fill="#b71d01" d="
  M 92.63 34.13
  Q 90.63 34.45 88.72 35.63
  C 82.92 39.23 79.80 43.50 76.31 48.96
  C 74.42 51.92 70.99 51.97 68.06 50.82
  Q 63.77 49.13 59.31 49.15
  A 2.41 2.40 -2.4 0 1 56.89 46.93
  Q 56.12 36.83 61.96 30.09
  C 66.67 24.65 72.68 22.93 79.97 22.92
  Q 130.43 22.89 152.30 23.00
  C 162.16 23.05 171.55 29.51 173.21 39.42
  Q 174.43 46.71 171.89 52.46
  Q 170.62 55.35 166.98 58.02
  Q 155.16 66.68 140.14 69.15
  Q 138.95 69.35 138.12 68.71
  C 136.32 67.33 137.97 64.99 138.88 63.61
  Q 143.34 56.90 148.13 49.62
  C 149.85 47.00 151.58 42.55 147.31 41.12
  C 144.75 40.26 142.01 39.83 139.33 40.27
  C 131.73 41.52 124.06 41.10 119.18 48.23
  C 116.11 52.72 119.67 57.74 118.40 62.64
  Q 117.26 67.04 112.58 67.06
  Q 105.12 67.09 97.53 65.51
  C 94.26 64.83 91.03 65.39 87.82 64.00
  A 0.55 0.55 0.0 0 1 87.56 63.22
  C 90.89 57.50 92.81 50.93 93.17 44.28
  Q 93.35 41.03 94.11 37.82
  Q 94.47 36.28 93.84 34.79
  A 1.14 1.13 -16.2 0 0 92.63 34.13
  Z"
/>
<path fill="#b71d01" d="
  M 119.27 91.15
  Q 119.72 89.33 118.19 90.40
  Q 114.69 92.84 113.27 97.16
  Q 111.10 103.78 109.53 110.42
  A 4.42 4.42 0.0 0 1 105.31 113.82
  C 97.75 113.95 90.18 114.77 82.45 114.83
  C 74.84 114.89 67.29 115.39 59.98 113.34
  C 56.71 112.42 56.84 110.18 56.82 106.92
  Q 56.64 83.16 56.91 61.65
  Q 56.93 59.63 58.55 60.84
  C 59.93 61.88 61.06 63.02 62.58 63.87
  Q 66.77 66.22 70.70 68.52
  C 71.59 69.05 72.74 69.53 73.80 69.57
  Q 77.30 69.69 80.79 70.95
  C 86.79 73.12 93.13 75.31 99.51 75.78
  Q 104.18 76.12 109.16 77.04
  Q 111.97 77.55 114.86 77.25
  Q 115.40 77.19 115.80 76.83
  Q 116.30 76.39 116.14 75.80
  A 0.87 0.87 0.0 0 0 115.58 75.20
  Q 113.23 74.36 111.64 74.23
  Q 102.20 73.46 94.67 71.90
  Q 88.89 70.71 82.57 69.23
  Q 80.05 68.65 78.38 67.46
  Q 74.58 64.78 69.40 63.07
  C 65.51 61.79 61.56 59.66 59.30 56.22
  A 1.61 1.61 0.0 0 1 60.44 53.74
  Q 63.35 53.38 65.99 54.44
  C 68.21 55.33 68.91 57.44 70.73 58.79
  C 74.14 61.32 79.01 59.89 79.53 55.34
  C 79.83 52.62 78.49 49.85 79.45 47.27
  Q 81.21 42.52 85.35 39.92
  Q 87.29 38.69 87.26 40.99
  C 87.15 47.34 86.06 56.05 82.01 61.10
  Q 78.97 64.89 82.95 66.54
  C 86.43 67.98 90.28 67.42 93.92 68.16
  C 101.22 69.66 109.28 69.90 116.44 69.95
  C 120.42 69.98 122.88 67.33 125.22 64.49
  C 128.50 60.53 127.74 54.03 123.97 51.00
  A 1.89 1.87 -54.4 0 1 123.57 48.53
  C 124.58 46.92 126.00 45.71 127.86 45.26
  C 132.18 44.21 138.30 41.64 142.38 43.64
  A 1.63 1.63 0.0 0 1 143.25 45.50
  C 141.75 51.39 137.57 57.45 134.30 62.81
  C 132.16 66.33 131.84 70.57 137.01 71.41
  C 139.69 71.84 142.52 71.38 145.02 70.23
  Q 149.89 68.00 154.54 66.95
  Q 164.67 64.66 172.42 58.84
  Q 173.34 58.14 173.43 59.29
  L 173.46 59.67
  Q 173.52 60.61 172.83 61.25
  Q 171.47 62.49 169.39 63.54
  C 161.09 67.73 152.56 71.15 144.64 75.19
  C 141.22 76.93 138.64 80.19 139.53 84.25
  C 141.36 92.60 142.86 101.77 147.80 108.91
  Q 150.78 113.22 153.06 117.34
  C 155.22 121.21 154.13 125.31 150.64 127.94
  Q 148.68 129.42 146.72 130.76
  A 1.61 1.61 0.0 0 1 144.51 130.38
  Q 143.24 128.64 143.04 126.49
  Q 142.01 115.12 137.98 103.59
  C 137.40 101.93 137.09 100.66 135.67 99.46
  Q 134.59 98.54 133.39 99.29
  Q 126.26 103.72 122.19 110.66
  Q 117.69 118.35 114.59 128.56
  C 113.45 132.30 111.85 135.72 110.13 139.24
  A 1.58 1.58 0.0 0 1 108.11 140.01
  Q 107.97 139.95 107.83 139.91
  A 2.01 2.01 0.0 0 1 106.47 137.45
  C 107.03 135.44 107.27 133.45 107.82 131.45
  Q 110.87 120.46 113.75 109.73
  C 115.45 103.40 117.73 97.36 119.27 91.15
  Z"
/>
<path fill="#b71d01" d="
  M 173.70 83.22
  C 173.70 93.79 170.91 103.06 165.02 111.55
  Q 162.38 115.35 158.27 113.01
  C 155.76 111.58 154.00 108.36 152.55 105.98
  C 148.50 99.32 146.49 91.51 144.68 84.15
  Q 143.63 79.88 147.65 77.66
  Q 156.42 72.79 166.54 68.46
  C 169.52 67.19 173.62 66.66 173.65 71.38
  Q 173.69 77.07 173.70 83.22
  Z"
/>
<path fill="#b71d01" d="
  M 119.65 127.86
  Q 122.85 116.98 128.72 108.51
  Q 130.02 106.63 131.76 105.26
  Q 132.62 104.57 132.92 105.64
  C 135.10 113.49 137.52 121.13 138.49 129.11
  Q 138.77 131.45 138.27 133.78
  C 137.84 135.80 135.58 136.15 134.02 136.86
  C 129.79 138.80 124.72 140.24 120.17 139.63
  C 118.20 139.37 117.09 137.30 117.56 135.47
  Q 118.57 131.54 119.65 127.86
  Z"
/>
<path fill="#b71d01" d="
  M 102.66 133.41
  C 100.86 137.60 97.07 139.95 92.42 139.88
  Q 85.17 139.76 78.53 139.77
  C 66.57 139.78 58.67 132.72 56.92 120.48
  Q 56.73 119.18 58.05 119.19
  C 59.64 119.22 61.11 119.70 62.68 119.89
  Q 70.94 120.88 79.66 120.60
  Q 93.29 120.17 104.38 118.43
  A 1.80 1.80 0.0 0 1 106.44 120.45
  Q 105.60 126.54 102.66 133.41
  Z"
/>
<ellipse fill="#000000" cx="0.00" cy="0.00" transform="translate(114.28,150.13) rotate(-31.3)" rx="2.39" ry="2.12"/>
<path fill="#000000" d="
  M 58.95 151.66
  L 56.89 151.22
  Q 56.48 151.13 56.68 150.77
  L 56.88 150.41
  Q 57.15 149.90 57.73 149.90
  L 64.57 149.82
  A 0.70 0.70 0.0 0 1 65.22 150.79
  Q 64.94 151.42 64.17 151.58
  A 1.45 1.45 0.0 0 0 63.01 153.00
  L 63.03 167.38
  Q 63.03 168.02 63.61 168.28
  L 65.04 168.91
  Q 65.56 169.14 65.39 169.69
  Q 65.34 169.82 65.23 169.92
  Q 64.84 170.22 64.36 170.17
  Q 61.00 169.85 57.69 170.11
  Q 57.07 170.15 56.99 169.54
  L 56.94 169.21
  Q 56.93 169.16 56.99 169.14
  Q 58.24 168.76 59.13 168.00
  Q 59.50 167.68 59.50 167.19
  L 59.49 152.32
  A 0.69 0.68 -84.8 0 0 58.95 151.66
  Z"
/>
<path fill="#000000" d="
  M 120.60 157.14
  L 119.99 157.30
  Q 119.25 157.49 119.37 156.74
  Q 119.57 155.48 120.84 155.77
  Q 121.58 155.94 121.76 155.20
  Q 122.17 153.47 123.30 152.01
  A 0.74 0.73 55.8 0 1 124.59 152.26
  Q 124.88 153.28 124.77 154.49
  Q 124.68 155.54 125.73 155.56
  L 128.73 155.61
  Q 129.63 155.63 129.37 156.49
  L 129.27 156.81
  Q 129.09 157.43 128.44 157.43
  L 125.32 157.41
  Q 124.80 157.41 124.81 157.93
  L 124.92 166.92
  A 1.43 1.42 77.2 0 0 126.94 168.20
  L 127.69 167.86
  A 0.94 0.94 0.0 0 1 128.68 167.98
  L 128.97 168.23
  Q 129.63 168.78 128.93 169.27
  Q 127.07 170.57 124.24 170.27
  Q 121.39 169.96 121.31 167.20
  Q 121.18 162.54 121.20 157.60
  A 0.48 0.48 0.0 0 0 120.60 157.14
  Z"
/>
<path fill="#000000" d="
  M 106.06 168.32
  L 108.42 167.95
  A 0.45 0.45 0.0 0 1 108.94 168.47
  Q 108.74 169.72 107.66 169.92
  C 104.82 170.45 101.35 170.88 101.24 167.51
  Q 101.07 162.72 101.18 158.10
  Q 101.19 157.58 100.68 157.49
  Q 100.46 157.45 100.25 157.53
  Q 99.65 157.76 99.38 157.17
  Q 99.21 156.78 99.37 156.37
  Q 99.58 155.83 100.16 155.83
  L 100.68 155.82
  Q 101.01 155.82 101.19 155.55
  Q 102.24 154.06 102.52 152.51
  Q 102.64 151.83 103.29 152.05
  Q 103.49 152.12 103.70 152.04
  Q 104.34 151.80 104.38 152.49
  L 104.53 155.05
  Q 104.56 155.55 105.06 155.57
  L 108.62 155.72
  Q 109.00 155.73 108.98 156.12
  L 108.94 156.90
  Q 108.90 157.57 108.24 157.46
  Q 106.57 157.17 105.10 157.49
  Q 104.58 157.60 104.55 158.14
  C 104.39 161.32 104.20 166.04 105.10 167.83
  Q 105.40 168.42 106.06 168.32
  Z"
/>
<path fill="#000000" d="
  M 152.84 158.48
  Q 152.91 162.28 152.88 165.50
  Q 152.84 169.32 156.61 167.92
  A 0.50 0.49 -21.1 0 1 157.24 168.19
  Q 157.57 168.96 156.79 169.52
  Q 156.14 169.99 155.36 170.09
  C 153.08 170.37 149.80 170.62 149.64 167.78
  Q 149.38 162.96 149.56 158.39
  Q 149.58 157.90 149.14 157.66
  Q 148.79 157.47 148.39 157.46
  Q 148.06 157.45 147.80 157.23
  Q 147.49 156.97 147.57 156.58
  Q 147.65 156.18 148.05 156.10
  Q 150.27 155.67 150.83 152.90
  Q 150.93 152.38 151.42 152.17
  Q 151.94 151.96 152.45 152.27
  A 1.00 1.00 0.0 0 1 152.84 153.54
  Q 152.54 154.18 152.78 154.79
  A 1.11 1.10 81.9 0 0 153.69 155.48
  L 157.04 155.79
  Q 157.52 155.84 157.42 156.32
  L 157.35 156.66
  A 0.89 0.89 0.0 0 1 156.52 157.37
  L 153.80 157.46
  A 1.00 0.99 88.5 0 0 152.84 158.48
  Z"
/>
<path fill="#000000" d="
  M 95.19 158.82
  C 94.60 158.84 93.90 156.38 91.84 156.30
  C 89.31 156.19 89.23 159.37 91.12 160.33
  Q 93.10 161.34 95.39 162.58
  C 97.74 163.86 98.16 166.25 96.55 168.49
  Q 96.20 168.98 95.62 169.15
  Q 95.05 169.32 94.62 169.76
  Q 94.27 170.13 93.76 170.13
  L 88.49 170.20
  A 2.22 2.22 0.0 0 1 86.33 167.36
  L 86.61 166.38
  Q 86.89 165.41 87.49 166.23
  C 88.99 168.27 90.02 169.58 92.94 168.67
  A 1.66 1.65 -21.9 0 0 93.93 166.35
  C 93.52 165.51 92.56 164.89 91.70 164.57
  Q 89.78 163.86 87.92 162.50
  C 85.58 160.80 85.70 157.59 88.21 156.16
  Q 91.44 154.31 96.02 155.87
  A 0.86 0.86 0.0 0 1 96.60 156.61
  Q 96.69 157.75 96.33 158.78
  Q 96.24 159.05 95.95 159.05
  Q 95.70 159.04 95.49 158.90
  Q 95.36 158.81 95.19 158.82
  Z"
/>
<path fill="#000000" d="
  M 116.83 168.56
  Q 117.37 168.52 117.90 168.74
  Q 118.34 168.93 118.27 169.41
  L 118.23 169.69
  Q 118.17 170.06 117.80 170.06
  L 111.51 170.11
  A 0.79 0.78 -7.7 0 1 110.75 169.54
  L 110.66 169.22
  Q 110.57 168.90 110.90 168.84
  L 112.03 168.64
  Q 112.70 168.52 112.69 167.84
  L 112.64 159.32
  Q 112.64 158.65 112.03 158.38
  Q 110.96 157.90 111.35 156.80
  A 1.27 1.27 0.0 0 1 112.72 155.96
  Q 113.43 156.05 114.03 155.73
  Q 116.26 154.50 116.25 157.05
  L 116.21 167.98
  Q 116.21 168.60 116.83 168.56
  Z"
/>
<path fill="#000000" d="
  M 131.69 157.98
  Q 131.00 157.33 131.04 156.53
  Q 131.10 155.57 132.04 155.77
  Q 133.54 156.09 134.59 155.22
  A 0.64 0.64 0.0 0 1 135.63 155.71
  L 135.69 165.96
  Q 135.70 168.63 138.37 168.40
  Q 138.55 168.39 138.67 168.38
  Q 141.17 168.17 141.09 165.65
  Q 140.98 162.56 140.96 159.14
  Q 140.95 158.46 140.61 157.97
  Q 140.32 157.55 139.78 157.49
  Q 139.25 157.44 139.34 156.90
  Q 139.55 155.66 140.88 155.81
  Q 142.49 155.99 143.21 155.52
  Q 144.63 154.58 144.61 156.29
  Q 144.53 162.07 144.49 167.77
  Q 144.48 168.77 145.63 169.50
  Q 146.43 170.01 145.49 170.13
  Q 144.26 170.29 142.89 170.28
  Q 142.41 170.27 142.12 169.91
  Q 140.88 168.36 139.27 169.82
  Q 138.79 170.25 138.15 170.27
  C 136.50 170.32 134.30 170.49 133.11 169.13
  C 131.56 167.34 131.91 161.43 132.10 159.03
  Q 132.15 158.41 131.69 157.98
  Z"
/>
<path fill="#000000" d="
  M 164.0249 170.1770
  A 7.85 7.31 107.0 0 1 159.3294 160.5328
  A 7.85 7.31 107.0 0 1 168.6151 155.1630
  A 7.85 7.31 107.0 0 1 173.3106 164.8072
  A 7.85 7.31 107.0 0 1 164.0249 170.1770
  Z
  M 166.4475 168.9192
  A 6.21 3.62 89.1 0 0 169.9696 162.6531
  A 6.21 3.62 89.1 0 0 166.2525 156.5008
  A 6.21 3.62 89.1 0 0 162.7304 162.7669
  A 6.21 3.62 89.1 0 0 166.4475 168.9192
  Z"
/>
<path fill="#000000" d="
  M 82.79 168.50
  Q 83.15 168.34 83.59 168.59
  A 0.75 0.73 -1.0 0 1 83.90 168.88
  Q 84.29 169.55 83.72 170.07
  A 0.76 0.74 -60.8 0 1 83.07 170.26
  Q 80.30 169.70 77.71 170.07
  Q 77.15 170.15 77.00 169.61
  Q 76.95 169.45 77.04 169.28
  Q 77.17 169.06 77.42 168.99
  Q 78.63 168.64 78.68 167.38
  Q 78.80 163.74 78.54 159.69
  Q 78.38 157.22 75.92 157.45
  L 75.27 157.51
  Q 73.01 157.72 73.00 159.98
  L 72.97 167.49
  Q 72.97 168.24 73.66 168.54
  Q 74.20 168.78 74.39 169.31
  Q 74.69 170.12 73.83 170.10
  L 68.31 169.96
  Q 67.47 169.94 68.00 169.29
  Q 68.43 168.75 68.99 168.32
  A 1.34 1.33 71.0 0 0 69.50 167.27
  L 69.47 159.84
  Q 69.47 159.25 69.09 158.81
  L 67.88 157.39
  A 0.75 0.75 0.0 0 1 68.26 156.18
  L 70.79 155.51
  Q 71.61 155.29 72.06 156.01
  Q 72.63 156.92 73.63 156.44
  C 76.47 155.09 81.68 154.02 81.96 158.92
  Q 82.24 163.53 82.03 167.99
  Q 81.99 168.85 82.79 168.50
  Z"
/>
<ellipse fill="#000000" cx="0.00" cy="0.00" transform="translate(61.79,179.87) rotate(-38.8)" rx="2.28" ry="2.05"/>
<ellipse fill="#000000" cx="0.00" cy="0.00" transform="translate(146.64,179.88) rotate(-24.1)" rx="2.32" ry="2.15"/>
<path fill="#000000" d="
  M 131.69 185.50
  Q 132.61 185.52 133.35 185.00
  Q 133.74 184.74 134.20 184.75
  C 136.14 184.82 138.94 185.48 139.99 187.43
  Q 142.37 191.82 140.13 196.14
  C 137.87 200.50 132.66 200.89 128.40 199.61
  A 1.27 1.27 0.0 0 1 127.50 198.37
  Q 127.64 191.45 127.47 184.77
  Q 127.44 183.67 127.50 182.47
  Q 127.55 181.24 126.48 180.75
  Q 124.41 179.83 126.57 179.14
  Q 128.50 178.51 130.42 178.70
  Q 131.20 178.78 131.19 179.56
  L 131.08 184.87
  Q 131.06 185.49 131.69 185.50
  Z
  M 131.10 188.28
  L 131.02 197.26
  A 1.46 1.46 0.0 0 0 132.47 198.73
  L 133.39 198.74
  A 5.13 4.18 -89.5 0 0 137.61 193.65
  L 137.63 192.01
  A 5.13 4.18 -89.5 0 0 133.49 186.84
  L 132.57 186.83
  A 1.46 1.46 0.0 0 0 131.10 188.28
  Z"
/>
<path fill="#000000" d="
  M 218.29 198.34
  L 219.27 198.36
  A 0.74 0.74 0.0 0 1 219.99 199.02
  L 220.03 199.40
  A 0.56 0.56 0.0 0 1 219.47 200.02
  L 212.82 200.03
  Q 212.35 200.03 212.27 199.57
  L 212.18 198.98
  Q 212.08 198.38 212.69 198.41
  Q 213.31 198.45 213.76 198.09
  A 0.77 0.77 0.0 0 0 214.05 197.49
  L 214.10 182.06
  A 0.71 0.70 -72.7 0 0 213.80 181.48
  Q 213.53 181.30 213.21 181.31
  Q 212.69 181.34 212.41 180.90
  Q 211.86 180.04 212.37 179.21
  A 0.95 0.95 0.0 0 1 213.12 178.76
  L 216.74 178.53
  Q 217.77 178.47 217.77 179.50
  L 217.73 197.78
  Q 217.73 198.34 218.29 198.34
  Z"
/>
<path fill="#000000" d="
  M 21.19 181.16
  C 19.63 180.96 17.05 180.67 16.10 182.32
  C 13.30 187.18 25.00 188.89 25.70 193.41
  C 25.93 194.87 26.03 196.42 25.07 197.69
  Q 22.91 200.52 17.91 200.23
  Q 14.61 200.04 12.42 199.17
  Q 11.91 198.97 12.00 198.43
  Q 12.27 196.77 12.02 195.28
  Q 11.88 194.46 12.70 194.42
  L 12.99 194.41
  Q 13.80 194.37 13.98 195.16
  Q 14.98 199.69 20.84 198.27
  Q 21.45 198.12 21.71 197.56
  Q 23.20 194.36 20.69 192.67
  Q 18.07 190.89 15.11 189.37
  C 9.68 186.56 12.71 179.02 18.17 179.44
  Q 21.05 179.65 23.81 179.64
  A 0.77 0.76 -2.0 0 1 24.58 180.35
  L 24.79 183.56
  Q 24.83 184.20 24.19 184.23
  L 23.64 184.25
  A 0.49 0.47 73.2 0 1 23.19 184.00
  L 21.90 181.65
  A 1.00 0.98 79.0 0 0 21.19 181.16
  Z"
/>
<path fill="#000000" d="
  M 191.69 185.43
  Q 193.06 185.72 194.52 185.24
  Q 195.25 184.99 195.23 185.77
  L 195.21 186.69
  Q 195.19 187.32 194.56 187.24
  L 192.24 186.95
  A 1.07 1.07 0.0 0 0 191.03 188.01
  L 191.02 196.78
  A 1.32 1.30 -71.9 0 0 191.54 197.83
  Q 192.77 198.74 194.03 197.67
  A 0.51 0.51 0.0 0 1 194.76 197.75
  L 195.17 198.28
  Q 195.67 198.92 194.93 199.26
  Q 192.36 200.44 189.65 200.01
  A 2.55 2.55 0.0 0 1 187.50 197.49
  L 187.53 187.98
  Q 187.53 187.43 187.02 187.23
  Q 186.65 187.08 186.24 187.23
  Q 185.53 187.47 185.53 186.72
  L 185.52 186.28
  Q 185.52 185.76 186.04 185.69
  Q 188.49 185.36 188.71 182.63
  Q 188.77 181.84 189.54 181.69
  Q 190.15 181.56 190.76 182.18
  A 0.89 0.86 23.1 0 1 191.02 182.80
  L 191.00 184.57
  Q 190.99 185.28 191.69 185.43
  Z"
/>
<path fill="#000000" d="
  M 32.6457 199.9853
  A 7.89 7.33 108.2 0 1 28.1467 190.2006
  A 7.89 7.33 108.2 0 1 37.5743 184.9947
  A 7.89 7.33 108.2 0 1 42.0733 194.7794
  A 7.89 7.33 108.2 0 1 32.6457 199.9853
  Z
  M 35.4076 198.6754
  A 6.19 3.63 87.8 0 0 38.7973 192.3507
  A 6.19 3.63 87.8 0 0 34.9324 186.3046
  A 6.19 3.63 87.8 0 0 31.5427 192.6293
  A 6.19 3.63 87.8 0 0 35.4076 198.6754
  Z"
/>
<path fill="#000000" d="
  M 48.04 190.08
  C 47.63 193.80 48.01 197.65 52.54 198.27
  Q 53.11 198.34 53.58 198.10
  Q 54.47 197.64 54.77 197.67
  Q 58.07 198.02 55.08 199.46
  Q 52.74 200.58 49.44 199.93
  Q 45.69 199.18 44.73 195.32
  C 43.00 188.40 48.52 183.41 55.23 185.19
  Q 55.74 185.32 55.99 185.79
  Q 56.66 187.06 56.25 188.39
  A 0.93 0.92 -55.1 0 1 54.63 188.68
  C 53.95 187.77 53.33 186.73 52.04 186.70
  C 50.01 186.66 48.27 187.99 48.04 190.08
  Z"
/>
<path fill="#000000" d="
  M 72.8438 200.1641
  A 7.79 7.24 102.2 0 1 67.4135 191.0200
  A 7.79 7.24 102.2 0 1 76.1362 184.9359
  A 7.79 7.24 102.2 0 1 81.5665 194.0800
  A 7.79 7.24 102.2 0 1 72.8438 200.1641
  Z
  M 77.7222 189.4519
  A 3.14 3.14 0.0 0 0 74.4904 186.4064
  L 74.0706 186.4189
  A 3.14 3.14 0.0 0 0 71.0251 189.6507
  L 71.1978 195.4681
  A 3.14 3.14 0.0 0 0 74.4296 198.5136
  L 74.8494 198.5011
  A 3.14 3.14 0.0 0 0 77.8949 195.2693
  L 77.7222 189.4519
  Z"
/>
<path fill="#000000" d="
  M 96.52 198.53
  L 97.07 198.58
  A 0.54 0.53 -86.2 0 1 97.56 199.15
  Q 97.56 199.29 97.51 199.42
  Q 97.43 199.70 97.16 199.81
  Q 94.55 200.81 92.82 199.18
  Q 92.44 198.83 92.02 199.13
  C 89.72 200.79 84.68 200.59 83.91 197.06
  C 82.99 192.84 88.23 191.22 91.38 191.31
  Q 92.88 191.35 92.45 189.92
  L 91.92 188.13
  Q 91.51 186.75 90.08 186.93
  L 85.58 187.48
  Q 84.29 187.63 84.96 186.51
  Q 85.26 186.00 85.82 185.80
  Q 89.81 184.33 93.36 185.47
  C 95.16 186.04 96.01 188.04 96.00 189.78
  Q 95.97 193.69 96.00 197.97
  Q 96.00 198.49 96.52 198.53
  Z
  M 88.39 193.69
  Q 87.69 194.54 87.45 195.31
  A 2.41 2.40 -78.5 0 0 89.50 198.42
  Q 90.83 198.55 92.08 197.51
  A 1.03 1.03 0.0 0 0 92.44 196.75
  L 92.46 193.26
  A 0.75 0.75 0.0 0 0 91.44 192.56
  Q 90.73 192.85 89.97 192.90
  Q 88.99 192.96 88.39 193.69
  Z"
/>
<path fill="#000000" d="
  M 114.60 198.49
  L 115.31 198.50
  A 0.67 0.67 0.0 0 1 115.97 199.23
  L 115.94 199.52
  Q 115.89 200.01 115.40 200.00
  Q 112.47 199.89 109.72 199.96
  Q 108.87 199.98 108.43 199.33
  Q 108.01 198.71 108.75 198.63
  Q 109.30 198.57 109.79 198.31
  Q 110.30 198.04 110.28 197.47
  L 110.07 189.79
  Q 110.00 187.08 107.29 187.24
  L 106.91 187.26
  Q 104.47 187.40 104.47 189.84
  L 104.48 197.72
  Q 104.48 198.11 104.85 198.22
  L 105.90 198.54
  Q 106.24 198.64 106.30 199.00
  Q 106.33 199.18 106.29 199.35
  A 0.77 0.76 5.1 0 1 105.55 199.96
  L 99.88 200.00
  A 0.64 0.63 88.6 0 1 99.24 199.38
  L 99.24 199.04
  Q 99.22 198.39 99.87 198.50
  Q 101.11 198.73 101.11 197.53
  Q 101.10 193.62 100.94 189.02
  Q 100.92 188.60 100.64 188.30
  Q 100.41 188.06 100.08 188.04
  Q 99.49 187.99 99.34 187.42
  Q 99.15 186.75 99.44 186.13
  Q 99.65 185.65 100.18 185.68
  Q 101.87 185.79 103.06 184.93
  Q 103.68 184.49 103.72 185.24
  Q 103.76 186.03 104.24 186.53
  Q 104.84 187.15 105.25 186.39
  Q 105.59 185.77 106.25 185.69
  Q 107.01 185.61 107.70 185.27
  Q 110.76 183.79 112.97 186.59
  A 0.50 0.50 0.0 0 0 113.63 186.71
  Q 115.21 185.70 117.26 185.08
  Q 119.10 184.52 120.80 185.60
  Q 122.70 186.82 122.88 189.11
  Q 123.18 192.80 122.95 197.46
  Q 122.92 198.06 123.47 198.30
  Q 123.99 198.53 124.57 198.49
  Q 125.08 198.46 125.02 198.97
  L 124.96 199.56
  A 0.51 0.51 0.0 0 1 124.45 200.01
  L 118.41 199.98
  A 0.74 0.74 0.0 0 1 117.68 199.37
  L 117.60 198.91
  A 0.29 0.29 0.0 0 1 117.92 198.57
  Q 118.61 198.67 119.01 198.39
  Q 119.33 198.17 119.34 197.53
  Q 119.45 193.18 119.18 189.85
  Q 118.99 187.58 116.75 187.17
  Q 116.48 187.12 116.21 187.17
  Q 114.00 187.58 113.99 189.82
  L 113.96 197.85
  Q 113.96 198.49 114.60 198.49
  Z"
/>
<path fill="#000000" d="
  M 155.55 193.68
  Q 156.44 197.85 160.34 198.32
  Q 160.96 198.40 161.56 198.19
  L 163.62 197.49
  Q 164.54 197.17 164.59 198.15
  Q 164.61 198.48 164.44 198.76
  Q 164.17 199.22 163.67 199.38
  Q 159.39 200.75 156.25 199.73
  Q 152.95 198.65 152.29 194.45
  Q 151.43 188.95 155.41 186.17
  Q 158.21 184.21 161.54 185.15
  Q 165.81 186.36 165.23 192.07
  Q 165.16 192.74 164.49 192.74
  L 156.28 192.77
  A 0.76 0.75 84.0 0 0 155.55 193.68
  Z
  M 156.26 191.21
  L 161.67 191.33
  A 0.28 0.28 0.0 0 0 161.96 191.06
  L 161.99 189.83
  A 3.37 2.85 -88.7 0 0 159.22 186.39
  L 158.94 186.39
  A 3.37 2.85 -88.7 0 0 156.01 189.69
  L 155.98 190.92
  A 0.28 0.28 0.0 0 0 156.26 191.21
  Z"
/>
<path fill="#000000" d="
  M 182.79 198.30
  L 183.86 198.51
  Q 184.38 198.61 184.25 199.11
  L 184.15 199.48
  A 0.70 0.69 -83.0 0 1 183.48 200.01
  L 177.31 200.02
  A 0.50 0.50 0.0 0 1 176.81 199.56
  L 176.75 199.00
  Q 176.70 198.47 177.23 198.51
  Q 177.73 198.54 178.16 198.34
  Q 178.69 198.10 178.68 197.52
  L 178.67 190.14
  Q 178.67 187.59 176.12 187.41
  Q 175.65 187.37 175.16 187.41
  Q 172.55 187.59 172.81 190.19
  Q 173.18 193.87 172.77 197.41
  Q 172.71 197.94 173.20 198.15
  L 174.38 198.66
  Q 174.84 198.86 174.61 199.31
  Q 174.29 199.89 173.63 199.90
  Q 171.06 199.94 168.33 199.95
  A 0.66 0.65 -74.5 0 1 167.77 198.95
  Q 168.12 198.39 168.78 198.31
  A 0.84 0.83 86.5 0 0 169.51 197.48
  L 169.52 189.19
  Q 169.53 188.49 168.86 188.24
  Q 168.19 187.99 167.74 187.41
  Q 167.42 186.98 167.78 186.58
  Q 168.86 185.38 170.51 185.45
  Q 171.12 185.48 171.54 185.06
  Q 172.06 184.53 172.13 185.27
  Q 172.20 186.00 172.81 186.37
  A 0.81 0.80 -45.3 0 0 173.65 186.36
  Q 175.72 185.07 177.48 184.88
  Q 180.32 184.58 181.49 186.64
  Q 182.10 187.72 182.15 190.44
  Q 182.21 193.99 182.32 197.75
  Q 182.34 198.22 182.79 198.30
  Z"
/>
<path fill="#000000" d="
  M 210.09 198.30
  Q 210.31 198.27 210.52 198.37
  Q 210.95 198.56 210.98 199.03
  L 211.00 199.53
  Q 211.03 200.10 210.47 200.11
  L 207.27 200.16
  Q 206.61 200.17 206.48 199.52
  Q 206.44 199.33 206.32 199.20
  A 0.55 0.55 0.0 0 0 206.02 199.02
  Q 205.41 198.89 205.11 199.44
  Q 204.88 199.86 204.42 199.94
  Q 200.93 200.60 198.86 199.42
  C 196.22 197.92 196.77 194.23 199.05 192.73
  Q 200.92 191.51 203.26 191.27
  Q 204.75 191.11 205.17 190.77
  Q 206.12 189.99 205.39 188.42
  C 204.42 186.34 200.64 186.95 199.14 187.69
  Q 198.36 188.08 198.08 187.26
  Q 197.99 187.00 198.04 186.73
  A 1.25 1.23 87.2 0 1 198.93 185.73
  C 202.08 184.84 206.65 183.91 208.62 187.03
  Q 209.44 188.33 209.35 191.48
  Q 209.27 194.52 209.33 197.63
  Q 209.35 198.37 210.09 198.30
  Z
  M 205.62 197.93
  L 205.54 193.19
  A 0.29 0.29 0.0 0 0 205.24 192.90
  L 203.37 192.94
  A 2.64 2.62 89.0 0 0 200.80 195.62
  L 200.80 195.66
  A 2.64 2.62 89.0 0 0 203.47 198.26
  L 205.34 198.22
  A 0.29 0.29 0.0 0 0 205.62 197.93
  Z"
/>
<path fill="#000000" d="
  M 63.54 197.28
  Q 64.06 198.42 65.38 198.55
  A 0.44 0.44 0.0 0 1 65.68 199.26
  L 65.46 199.54
  A 1.17 1.15 -69.5 0 1 64.54 199.97
  L 59.11 199.88
  Q 58.60 199.87 58.38 199.41
  L 58.25 199.13
  A 0.24 0.23 -20.7 0 1 58.40 198.81
  L 59.97 198.37
  Q 60.44 198.23 60.45 197.74
  C 60.54 194.85 61.02 189.85 59.11 187.66
  A 1.12 1.12 0.0 0 1 59.67 185.84
  L 62.67 185.08
  A 0.80 0.80 0.0 0 1 63.67 185.85
  Q 63.69 191.00 63.78 195.97
  Q 63.78 196.26 63.67 196.52
  Q 63.61 196.64 63.55 196.77
  Q 63.42 197.02 63.54 197.28
  Z"
/>
<path fill="#000000" d="
  M 145.16 197.53
  L 145.06 189.52
  A 1.72 1.72 0.0 0 0 144.51 188.26
  L 143.73 187.54
  A 0.88 0.88 0.0 0 1 144.11 186.05
  L 147.68 185.11
  Q 148.46 184.90 148.47 185.71
  L 148.60 197.51
  Q 148.61 198.17 149.26 198.29
  L 150.18 198.47
  A 0.45 0.45 0.0 0 1 150.54 198.99
  L 150.47 199.34
  Q 150.35 199.98 149.71 199.98
  L 143.88 199.98
  A 0.77 0.77 0.0 0 1 143.46 198.56
  Q 143.87 198.29 144.37 198.31
  Q 145.16 198.33 145.16 197.53
  Z"
/>
</svg>
